<svg xmlns="http://www.w3.org/2000/svg" version="1.1" xmlns:xlink="http://www.w3.org/1999/xlink" viewBox="0 0 200 200"><rect width="200" height="200" fill="url('#gradient')"></rect><defs><linearGradient id="gradient" gradientTransform="rotate(96 0.5 0.5)"><stop offset="0%" stop-color="#ffffff"></stop><stop offset="100%" stop-color="#ffffff"></stop></linearGradient></defs><g><g fill="#007bff" transform="matrix(4.056150104239054,0,0,4.056150104239054,38.64877545541985,128.823320091624)" stroke="#1a1a1a" stroke-width="0.6"><path d="M1.07-14.22L5.58-14.22L8.75-4.33L11.91-14.22L16.43-14.22L16.43 0L12.99 0L12.99-3.32L13.32-10.12L9.88 0L7.62 0L4.17-10.13L4.50-3.32L4.50 0L1.07 0L1.07-14.22ZM25.53-10.27L25.53-10.27Q25.53-10.95 25.00-11.36Q24.48-11.77 23.59-11.77L23.59-11.77Q22.76-11.77 22.26-11.37Q21.76-10.98 21.76-10.33L21.76-10.33L18.34-10.33Q18.34-11.50 19.01-12.43Q19.68-13.36 20.90-13.88Q22.12-14.40 23.59-14.40L23.59-14.40Q26.13-14.40 27.54-13.34Q28.96-12.28 28.96-10.36L28.96-10.36Q28.96-9.38 28.38-8.58Q27.81-7.77 26.81-7.30L26.81-7.30Q27.96-6.89 28.57-6.06Q29.18-5.22 29.18-3.98L29.18-3.98Q29.18-2.07 27.66-0.94Q26.13 0.19 23.59 0.19L23.59 0.19Q21.24 0.19 19.69-0.92Q18.13-2.03 18.13-3.95L18.13-3.95L21.57-3.95Q21.57-3.31 22.14-2.88Q22.71-2.44 23.59-2.44L23.59-2.44Q24.55-2.44 25.15-2.89Q25.74-3.34 25.74-4.06L25.74-4.06Q25.74-5.12 25.23-5.55Q24.73-5.99 23.75-5.99L23.75-5.99L21.92-5.99L21.92-8.53L23.87-8.53Q25.53-8.57 25.53-10.27Z"></path></g></g></svg>